<svg width="336" height="336" viewBox="0 0 336 336" fill="none" xmlns="http://www.w3.org/2000/svg">
<rect width="336" height="336" rx="24" fill="#FFEB3B"/>
<path d="M81.4029 257V102.598H135.391V125.915H104.091V166.459H125.098V189.777H104.091V257H81.4029ZM137.446 258.47V236.203C138.426 236.343 139.162 236.413 139.652 236.413C142.803 236.413 145.254 235.433 147.004 233.472C148.755 231.441 149.63 228.57 149.63 224.859V102.598H172.318V228.43C172.318 235.083 171.092 240.649 168.642 245.131C166.261 249.612 162.76 252.974 158.138 255.214C153.516 257.455 147.915 258.576 141.332 258.576C140.702 258.576 140.072 258.576 139.442 258.576C138.811 258.576 138.146 258.541 137.446 258.47ZM216.415 258.681C210.183 258.681 205.001 257.665 200.869 255.635C196.738 253.534 193.482 250.523 191.101 246.601C188.72 242.68 187.005 237.954 185.954 232.422C184.974 226.89 184.484 220.658 184.484 213.725L206.751 211.625C206.751 214.986 206.857 218.242 207.067 221.393C207.347 224.474 207.802 227.275 208.432 229.796C209.132 232.247 210.113 234.207 211.373 235.678C212.704 237.148 214.384 237.884 216.415 237.884C219.776 237.884 222.157 236.343 223.557 233.262C224.958 230.111 225.658 226.33 225.658 221.918C225.658 217.507 224.503 212.92 222.192 208.158C219.881 203.397 217.115 198.88 213.894 194.609C208.432 187.326 203.635 180.569 199.504 174.337C195.443 168.105 192.257 161.978 189.946 155.956C187.705 149.934 186.585 143.631 186.585 137.049C186.585 131.867 187.25 127.106 188.58 122.764C189.911 118.353 191.836 114.537 194.357 111.315C196.948 108.024 200.064 105.468 203.705 103.648C207.347 101.827 211.513 100.917 216.205 100.917C222.017 100.917 226.918 101.897 230.91 103.858C234.971 105.819 238.227 108.62 240.678 112.261C243.199 115.902 245.019 120.244 246.14 125.285C247.33 130.257 247.925 135.789 247.925 141.881L225.658 143.982C225.658 141.391 225.518 138.8 225.238 136.209C225.028 133.548 224.608 131.132 223.977 128.961C223.347 126.791 222.437 125.04 221.246 123.71C220.056 122.379 218.515 121.714 216.625 121.714C213.684 121.714 211.653 122.974 210.533 125.495C209.412 127.946 208.852 131.447 208.852 135.999C208.852 141.881 210.428 147.553 213.579 153.015C216.73 158.477 220.966 164.849 226.288 172.131C232.66 180.744 237.842 188.657 241.833 195.869C245.895 203.082 247.925 211.064 247.925 219.817C247.925 225.349 247.33 230.496 246.14 235.258C244.949 239.949 243.059 244.046 240.468 247.547C237.947 251.048 234.691 253.779 230.7 255.74C226.778 257.7 222.017 258.681 216.415 258.681Z" fill="black"/>
</svg>
